<svg id="ezbLnCjNTkK1" xmlns="http://www.w3.org/2000/svg" xmlns:xlink="http://www.w3.org/1999/xlink" viewBox="0 0 350 350" shape-rendering="geometricPrecision" text-rendering="geometricPrecision"><ellipse rx="22.758618" ry="25.063285" transform="matrix(.878788 0 0 0.79798 227.629578 313.313888)" stroke-width="0"/><ellipse rx="22.758618" ry="25.063285" transform="matrix(.878788 0 0 0.79798 305.188549 231.792464)" stroke-width="0"/><ellipse rx="22.758618" ry="25.063285" transform="matrix(.878788 0 0 0.79798 305.188549 114.4009)" stroke-width="0"/><line x1="-55.98419" y1="0" x2="55.984189" y2="0" transform="matrix(.010824-.999941 0.999941 0.010824 305.794501 175.811552)" fill="none" stroke="#000" stroke-width="15"/><line x1="-55.98419" y1="0" x2="55.984189" y2="0" transform="translate(171.645388 313.313887)" fill="none" stroke="#000" stroke-width="15"/><ellipse rx="22.758618" ry="25.063285" transform="matrix(.878788 0 0 0.79798 222.530682 36.686112)" stroke-width="0"/><ellipse rx="22.758618" ry="25.063285" transform="matrix(.878788 0 0 0.79798 44.811453 160.858715)" stroke-width="0"/><ellipse rx="22.758618" ry="25.063285" transform="matrix(.878788 0 0 0.79798 144.400382 119.830642)" stroke-width="0"/><line x1="-55.98419" y1="0" x2="55.984189" y2="0" transform="matrix(.738225 0.674554-.674554 0.738225 263.859615 74.450497)" fill="none" stroke="#000" stroke-width="15"/><line x1="-55.98419" y1="0" x2="55.984189" y2="0" transform="matrix(.632766 1.337672-.903965 0.427607 80.236325 237.107334)" fill="none" stroke="#000" stroke-width="15"/><ellipse rx="22.758618" ry="25.063285" transform="matrix(.878788 0 0 0.79798 115.661199 313.313888)" stroke-width="0"/><line x1="-55.98419" y1="0" x2="55.984189" y2="0" transform="matrix(.697789-.716303 0.716303 0.697789 183.465532 79.728976)" fill="none" stroke="#000" stroke-width="15"/><line x1="-55.98419" y1="0" x2="55.984189" y2="0" transform="matrix(.697789-.716303 0.716303 0.697789 267.335302 271.894128)" fill="none" stroke="#000" stroke-width="15"/><line x1="-55.98419" y1="0" x2="55.984189" y2="0" transform="matrix(.94083-.33888 0.33888 0.94083 90.613544 140.858715)" fill="none" stroke="#000" stroke-width="15"/></svg>
