<svg id="ek09XKmyeQW1" xmlns="http://www.w3.org/2000/svg" xmlns:xlink="http://www.w3.org/1999/xlink" viewBox="0 0 350 350" shape-rendering="geometricPrecision" text-rendering="geometricPrecision"><path d="M80.944384,9.452127C68.283666,15.69824,42.37225,31.88439,33.683751,39.90898C18.155905,54.250306,1.650165,94.93513,40.512865,82.44355c28.14118-9.04538,38.788787-17.687364,65.112073-31.507089C126.629664,39.90898,162.21183,33.97568,167.06635,39.90898c18.20926,22.25575-83.677008,77.504684-100.29758,86.6445-15.75612,8.664445-18.95296,29.79749-7.35165,36.75827c24.95812,14.97487,98.17579-36.11322,117.10135-49.36111c8.65037-6.05526,55.912542-33.185435,68.790475-22.580082c17.854025,14.703309-51.522164,77.014755-78.242595,99.772449-14.180779,12.077718-54.089758,42.53457-30.981981,42.53457c28.611019,0,103.291522-66.243654,121.145547,3.597059" transform="translate(38.100518 51.636619)" fill="none" stroke="#000" stroke-width="30" stroke-linecap="round"/></svg>
